<svg width="960" height="960" xmlns="http://www.w3.org/2000/svg">

 <g>
  <title>Layer 1</title>
  <path id="svg_1" d="m480,-424l-196,196q-11,11 -28,11t-28,-11q-11,-11 -11,-28t11,-28l196,-196l-196,-196q-11,-11 -11,-28t11,-28q11,-11 28,-11t28,11l196,196l196,-196q11,-11 28,-11t28,11q11,11 11,28t-11,28l-196,196l196,196q11,11 11,28t-11,28q-11,11 -28,11t-28,-11l-196,-196z"/>
  <path fill="#ffffff" d="m480,536l-196,196q-11,11 -28,11t-28,-11q-11,-11 -11,-28t11,-28l196,-196l-196,-196q-11,-11 -11,-28t11,-28q11,-11 28,-11t28,11l196,196l196,-196q11,-11 28,-11t28,11q11,11 11,28t-11,28l-196,196l196,196q11,11 11,28t-11,28q-11,11 -28,11t-28,-11l-196,-196z"/>
 </g>
</svg>